<mxfile host="app.diagrams.net" modified="2023-07-19T08:21:48.828Z" agent="Mozilla/5.0 (Windows NT 10.0; Win64; x64) AppleWebKit/537.36 (KHTML, like Gecko) Chrome/114.0.0.0 Safari/537.36" version="21.6.3" etag="htL_JjF1Kfbp_FfZ6Hpl" type="github">
  <diagram name="第 1 页" id="wmMqAoQMArF9717Th0AF">
    <mxGraphModel>
      <root>
        <mxCell id="0" />
        <mxCell id="1" parent="0" />
      </root>
    </mxGraphModel>
  </diagram>
</mxfile>
